# https://github.com/mikedh/trimesh
v 0.00791290 0.00576742 0.00713986
v 0.01358203 0.00000196 0.00325796
v 0.01201219 0.00000196 0.00713986
v 0.00791290 0.01999804 0.00713986
v 0.00791290 0.00940094 0.00325796
v 0.01713517 0.00000196 0.00325796
v 0.01592280 0.00000196 0.00713986
v 0.01592280 0.01999804 0.00713986
v 0.00791290 0.01999804 0.00325796
v 0.01673255 0.00000196 0.00512444
v 0.01713517 0.01999804 0.00325796
v 0.01673255 0.01999804 0.00512444
f 1 2 3
f 1 3 7
f 1 7 8
f 1 8 4
f 1 4 9
f 1 9 5
f 1 5 2
f 2 6 10
f 2 10 7
f 2 7 3
f 2 5 9
f 2 9 11
f 2 11 6
f 4 8 12
f 4 12 11
f 4 11 9
f 6 11 12
f 6 12 10
f 7 10 12
f 7 12 8

