# https://github.com/mikedh/trimesh
v -0.00309222 0.01999804 0.01716122
v -0.00309222 0.01999804 0.00791110
v -0.00440955 0.01999804 0.01693483
v -0.00309222 0.00000196 0.01716122
v -0.00534420 0.01999804 0.00791110
v -0.00309222 0.00950666 0.00791110
v -0.00534420 0.01999804 0.01660431
v -0.00440955 0.00000196 0.01693483
v -0.00309222 0.00000196 0.01361783
v -0.00534420 0.00769381 0.00791110
v -0.00534420 0.00000196 0.01660431
v -0.00534420 0.00000196 0.01291060
f 1 2 5
f 1 5 7
f 1 7 3
f 1 3 8
f 1 8 4
f 1 4 9
f 1 9 6
f 1 6 2
f 2 6 10
f 2 10 5
f 3 7 11
f 3 11 8
f 4 8 11
f 4 11 12
f 4 12 9
f 5 10 12
f 5 12 11
f 5 11 7
f 6 9 10
f 9 12 10

