# https://github.com/mikedh/trimesh
v 0.00496706 0.01999804 0.00325796
v 0.00566402 0.01385865 0.00194202
v 0.00503749 0.01385865 0.00325796
v 0.01713463 0.01999804 0.00325796
v 0.00562031 0.01999804 0.00194202
v 0.01385992 0.00000196 0.00194202
v 0.01358186 0.00000196 0.00325796
v 0.01735805 0.01999804 0.00222283
v 0.01713463 0.00000196 0.00325796
v 0.01736897 0.01999804 0.00194202
v 0.01736897 0.00000196 0.00194202
v 0.01735805 0.00000196 0.00222283
f 1 2 3
f 1 3 7
f 1 7 9
f 1 9 4
f 1 4 8
f 1 8 10
f 1 10 5
f 1 5 2
f 2 5 10
f 2 10 11
f 2 11 6
f 2 6 3
f 3 6 7
f 4 9 12
f 4 12 8
f 6 11 12
f 6 12 9
f 6 9 7
f 8 12 11
f 8 11 10

