# https://github.com/mikedh/trimesh
v 0.00392433 0.01306959 0.00510677
v 0.00392433 0.01386076 0.00453828
v 0.00503715 0.01386076 0.00325796
v 0.00791290 0.00940069 0.00325796
v 0.00791290 0.00793644 0.00510677
v 0.00392433 0.02000000 0.00510677
v 0.00392433 0.02000000 0.00445810
v 0.00496609 0.02000000 0.00325796
v 0.00791290 0.02000000 0.00325796
v 0.00791290 0.02000000 0.00510677
f 1 2 3
f 1 3 4
f 1 4 5
f 1 5 10
f 1 10 6
f 1 6 7
f 1 7 2
f 2 7 8
f 2 8 3
f 3 8 9
f 3 9 4
f 4 9 10
f 4 10 5
f 6 10 9
f 6 9 8
f 6 8 7

