# https://github.com/mikedh/trimesh
v 0.00238232 0.01999804 0.01728297
v 0.00392394 0.01999804 0.01701809
v 0.00238232 0.01999804 0.00544116
v 0.00238232 0.00000196 0.01728297
v 0.00392394 0.01999804 0.00445821
v 0.00392394 0.00000196 0.01701809
v 0.00238232 0.01385865 0.00550016
v 0.00238232 0.00000196 0.01377173
v 0.00392394 0.01385865 0.00453856
v 0.00392394 0.00000196 0.01343654
f 1 2 5
f 1 5 3
f 1 3 7
f 1 7 8
f 1 8 4
f 1 4 6
f 1 6 2
f 2 6 10
f 2 10 9
f 2 9 5
f 3 5 7
f 4 8 10
f 4 10 6
f 5 9 7
f 7 9 8
f 8 9 10

