# https://github.com/mikedh/trimesh
v 0.00671839 0.00969655 -0.00501245
v 0.01303440 0.00000196 -0.00501245
v 0.01361939 0.00000196 -0.00308234
v 0.00671839 0.01144675 -0.00308234
v 0.00671839 0.01999804 -0.00501245
v 0.01670107 0.00000196 -0.00501245
v 0.01718361 0.00000196 -0.00308234
v 0.00671839 0.01999804 -0.00308234
v 0.01670107 0.01999804 -0.00501245
v 0.01710677 0.00000196 -0.00368691
v 0.01718361 0.01999804 -0.00308234
v 0.01710677 0.01999804 -0.00368691
f 1 2 3
f 1 3 4
f 1 4 8
f 1 8 5
f 1 5 9
f 1 9 6
f 1 6 2
f 2 6 10
f 2 10 7
f 2 7 3
f 3 7 11
f 3 11 8
f 3 8 4
f 5 8 11
f 5 11 12
f 5 12 9
f 6 9 12
f 6 12 10
f 7 10 12
f 7 12 11

