# https://github.com/mikedh/trimesh
v 0.00507872 0.01999804 -0.00308204
v 0.00593967 0.01999804 0.00000251
v 0.01718430 0.01999804 -0.00308204
v 0.00513579 0.01385865 -0.00308204
v 0.01745145 0.01999804 0.00000251
v 0.00600039 0.01385865 0.00000251
v 0.01748302 0.01999804 -0.00074281
v 0.01718430 0.00000196 -0.00308204
v 0.01362026 0.00000196 -0.00308204
v 0.01399913 0.00000196 0.00000251
v 0.01397241 0.00004698 0.00000251
v 0.01745145 0.00000196 0.00000251
v 0.01748302 0.00000196 -0.00074281
f 1 2 5
f 1 5 7
f 1 7 3
f 1 3 8
f 1 8 9
f 1 9 4
f 1 4 2
f 2 4 6
f 2 6 11
f 2 11 10
f 2 10 12
f 2 12 5
f 3 7 13
f 3 13 8
f 4 9 10
f 4 10 11
f 4 11 6
f 5 12 13
f 5 13 7
f 8 13 12
f 8 12 10
f 8 10 9

