# https://github.com/mikedh/trimesh
v -0.01745139 0.00000196 0.00000281
v -0.01399922 0.00000196 0.00000281
v -0.01735745 0.00000196 0.00222276
v -0.01745139 0.01999804 0.00000281
v -0.01374794 0.00000196 0.00249419
v -0.00601109 0.01383908 0.00000281
v -0.00545686 0.01385865 0.00249419
v -0.01729874 0.00000196 0.00249419
v -0.01735745 0.01999804 0.00222276
v -0.00593946 0.01999804 0.00000281
v -0.00600052 0.01385865 0.00000281
v -0.00545686 0.01998434 0.00249419
v -0.01729874 0.01999804 0.00249419
v -0.00545804 0.01999804 0.00249248
v -0.00545804 0.01999804 0.00249419
f 1 2 5
f 1 5 8
f 1 8 3
f 1 3 9
f 1 9 4
f 1 4 10
f 1 10 11
f 1 11 6
f 1 6 2
f 2 6 7
f 2 7 5
f 3 8 13
f 3 13 9
f 4 9 13
f 4 13 15
f 4 15 14
f 4 14 10
f 5 7 12
f 5 12 15
f 5 15 13
f 5 13 8
f 6 11 7
f 7 11 10
f 7 10 12
f 10 14 12
f 12 14 15

