# https://github.com/mikedh/trimesh
v -0.00309222 0.02000000 0.00791020
v -0.00309222 0.02000000 0.00511681
v -0.00534420 0.02000000 0.00791020
v -0.00309222 0.00950505 0.00791020
v -0.00424113 0.02000000 0.00418362
v -0.00309222 0.01385987 0.00513068
v -0.00534420 0.02000000 0.00418362
v -0.00534420 0.00769325 0.00791020
v -0.00534420 0.01246970 0.00418362
v -0.00428037 0.01385987 0.00418362
f 1 2 5
f 1 5 7
f 1 7 3
f 1 3 8
f 1 8 4
f 1 4 6
f 1 6 2
f 2 6 5
f 3 7 9
f 3 9 8
f 4 8 9
f 4 9 6
f 5 6 10
f 5 10 9
f 5 9 7
f 6 9 10

