# https://github.com/mikedh/trimesh
v -0.00169173 0.01999804 -0.00575636
v -0.00000281 0.01999804 -0.00600006
v -0.00169173 0.01999804 -0.01735492
v -0.00169173 0.01385865 -0.00575751
v -0.00169024 0.01385865 -0.00575751
v -0.00000281 0.01385865 -0.00600006
v -0.00000281 0.01999804 -0.01749976
v -0.00169173 0.00000196 -0.01735492
v -0.00169173 0.00000196 -0.01387880
v -0.00000281 0.00000196 -0.01399950
v -0.00000281 0.00000196 -0.01749976
f 1 2 7
f 1 7 3
f 1 3 8
f 1 8 9
f 1 9 4
f 1 4 5
f 1 5 6
f 1 6 2
f 2 6 10
f 2 10 11
f 2 11 7
f 3 7 11
f 3 11 8
f 4 9 5
f 5 9 10
f 5 10 6
f 8 11 10
f 8 10 9

