# https://github.com/mikedh/trimesh
v -0.00452770 0.02000000 -0.00393535
v -0.00324668 0.02000000 -0.00504510
v -0.00552087 0.02000000 -0.00393535
v -0.00452860 0.01385900 -0.00393535
v -0.00324668 0.01385900 -0.00504550
v -0.00324668 0.02000000 -0.00804560
v -0.00552087 0.02000000 -0.00804560
v -0.00552087 0.01248261 -0.00393535
v -0.00324668 0.00919120 -0.00804560
v -0.00552087 0.00732085 -0.00804560
f 1 2 6
f 1 6 7
f 1 7 3
f 1 3 8
f 1 8 4
f 1 4 5
f 1 5 2
f 2 5 9
f 2 9 6
f 3 7 10
f 3 10 8
f 4 8 5
f 5 8 9
f 6 9 10
f 6 10 7
f 8 10 9

