# https://github.com/mikedh/trimesh
v -0.00534420 0.01999804 0.01660512
v -0.00534420 0.01999804 0.00774262
v -0.00720804 0.01999804 0.01594581
v -0.00534420 0.00000196 0.01660512
v -0.00878121 0.01999804 0.00774262
v -0.00534420 0.00792678 0.00774262
v -0.00878121 0.01999804 0.01506702
v -0.00720804 0.00000196 0.01594581
v -0.00534420 0.00000196 0.01291039
v -0.00878121 0.00396241 0.00774262
v -0.00878121 0.00000196 0.01506702
v -0.00878121 0.00000196 0.01087086
f 1 2 5
f 1 5 7
f 1 7 3
f 1 3 8
f 1 8 4
f 1 4 9
f 1 9 6
f 1 6 2
f 2 6 10
f 2 10 5
f 3 7 11
f 3 11 8
f 4 8 11
f 4 11 12
f 4 12 9
f 5 10 12
f 5 12 11
f 5 11 7
f 6 9 10
f 9 12 10

