# https://github.com/mikedh/trimesh
v -0.00878121 0.01999804 0.01506780
v -0.00878121 0.01999804 0.00774262
v -0.00979967 0.01999804 0.01449848
v -0.00878121 0.00000196 0.01506780
v -0.01568083 0.01999804 0.00774262
v -0.00878121 0.00396241 0.00774262
v -0.01210945 0.01999804 0.01263420
v -0.00979967 0.00000196 0.01449848
v -0.00878121 0.00000196 0.01087031
v -0.01562613 0.01999804 0.00787885
v -0.01568083 0.00000196 0.00774262
v -0.01164817 0.00000196 0.00774262
v -0.01406939 0.01999804 0.01040639
v -0.01210945 0.00000196 0.01263420
v -0.01562613 0.00000196 0.00787885
v -0.01406939 0.00000196 0.01040639
f 1 2 5
f 1 5 10
f 1 10 13
f 1 13 7
f 1 7 3
f 1 3 8
f 1 8 4
f 1 4 9
f 1 9 6
f 1 6 2
f 2 6 12
f 2 12 11
f 2 11 5
f 3 7 14
f 3 14 8
f 4 8 14
f 4 14 16
f 4 16 15
f 4 15 11
f 4 11 12
f 4 12 9
f 5 11 15
f 5 15 10
f 6 9 12
f 7 13 16
f 7 16 14
f 10 15 16
f 10 16 13

