# https://github.com/mikedh/trimesh
v -0.01693494 0.00000196 0.00418360
v -0.01334360 0.00000196 0.00418360
v -0.01673233 0.00000196 0.00512466
v -0.01693494 0.01999804 0.00418360
v -0.01164763 0.00000196 0.00774262
v -0.00868915 0.00752741 0.00418360
v -0.00868915 0.00407400 0.00774262
v -0.01568052 0.00000196 0.00774262
v -0.01673233 0.01999804 0.00512466
v -0.00868915 0.01999804 0.00418360
v -0.00868915 0.01999804 0.00774262
v -0.01568052 0.01999804 0.00774262
f 1 2 5
f 1 5 8
f 1 8 3
f 1 3 9
f 1 9 4
f 1 4 10
f 1 10 6
f 1 6 2
f 2 6 7
f 2 7 5
f 3 8 12
f 3 12 9
f 4 9 12
f 4 12 11
f 4 11 10
f 5 7 11
f 5 11 12
f 5 12 8
f 6 10 11
f 6 11 7

