# https://github.com/mikedh/trimesh
v 0.00000157 0.01999804 0.01749876
v 0.00148400 0.01999804 0.01743620
v 0.00000157 0.01999804 0.00600054
v 0.00000157 0.00000196 0.01749876
v 0.00238217 0.01999804 0.01728275
v 0.00148400 0.00000196 0.01743620
v 0.00238217 0.01999804 0.00544221
v 0.00000157 0.01385865 0.00600054
v 0.00000157 0.00000196 0.01399889
v 0.00238217 0.00000196 0.01728275
v 0.00238217 0.01385865 0.00550005
v 0.00238217 0.00000196 0.01377226
f 1 2 5
f 1 5 7
f 1 7 3
f 1 3 8
f 1 8 9
f 1 9 4
f 1 4 6
f 1 6 2
f 2 6 10
f 2 10 5
f 3 7 8
f 4 9 12
f 4 12 10
f 4 10 6
f 5 10 12
f 5 12 11
f 5 11 7
f 7 11 8
f 8 11 9
f 9 11 12

