# https://github.com/mikedh/trimesh
v -0.00000018 0.01999804 0.01750000
v 0.00000134 0.01999804 0.01749879
v -0.00148427 0.01999804 0.01743576
v -0.00000018 0.00000196 0.01750000
v 0.00000134 0.01999804 0.00600042
v 0.00000134 0.00000196 0.01749879
v -0.00309222 0.01999804 0.01716060
v -0.00148427 0.00000196 0.01743576
v 0.00000134 0.01385865 0.00600042
v -0.00309222 0.01999804 0.00511677
v 0.00000134 0.00000196 0.01399934
v -0.00309222 0.00000196 0.01716060
v -0.00309222 0.01385865 0.00513131
v -0.00309222 0.00000196 0.01361751
f 1 2 5
f 1 5 10
f 1 10 7
f 1 7 3
f 1 3 8
f 1 8 4
f 1 4 6
f 1 6 2
f 2 6 11
f 2 11 9
f 2 9 5
f 3 7 12
f 3 12 8
f 4 8 12
f 4 12 14
f 4 14 11
f 4 11 6
f 5 9 10
f 7 10 13
f 7 13 14
f 7 14 12
f 9 11 13
f 9 13 10
f 11 14 13

