# https://github.com/mikedh/trimesh
v -0.00324668 0.01999804 -0.00504507
v -0.00169173 0.01999804 -0.00575726
v -0.00324668 0.01999804 -0.01717284
v -0.00324668 0.01385865 -0.00504627
v -0.00169173 0.01385865 -0.00575726
v -0.00169173 0.01999804 -0.01735601
v -0.00295748 0.01999804 -0.01724756
v -0.00324668 0.00000196 -0.01717284
v -0.00324668 0.00000196 -0.01358416
v -0.00169173 0.00000196 -0.01387819
v -0.00169173 0.00000196 -0.01735601
v -0.00295748 0.00000196 -0.01724756
f 1 2 6
f 1 6 7
f 1 7 3
f 1 3 8
f 1 8 9
f 1 9 4
f 1 4 5
f 1 5 2
f 2 5 10
f 2 10 11
f 2 11 6
f 3 7 12
f 3 12 8
f 4 9 10
f 4 10 5
f 6 11 12
f 6 12 7
f 8 12 11
f 8 11 10
f 8 10 9

