# https://github.com/mikedh/trimesh
v 0.00637445 0.00000196 -0.01625355
v 0.00853547 0.00000196 -0.01527744
v 0.00637445 0.00000196 -0.01243029
v 0.00637445 0.01999804 -0.01625355
v 0.01099328 0.00000196 -0.01361513
v 0.00853547 0.01999804 -0.01527744
v 0.01046336 0.00000196 -0.00928575
v 0.00637445 0.00470830 -0.00928575
v 0.00637445 0.01999804 -0.00928575
v 0.01313612 0.00000196 -0.01156196
v 0.01099328 0.01999804 -0.01361513
v 0.01481931 0.00000196 -0.00928575
v 0.01481931 0.01999804 -0.00928575
v 0.01313612 0.01999804 -0.01156196
f 1 2 5
f 1 5 10
f 1 10 12
f 1 12 7
f 1 7 3
f 1 3 8
f 1 8 9
f 1 9 4
f 1 4 6
f 1 6 2
f 2 6 11
f 2 11 5
f 3 7 8
f 4 9 13
f 4 13 14
f 4 14 11
f 4 11 6
f 5 11 14
f 5 14 10
f 7 12 13
f 7 13 9
f 7 9 8
f 10 14 13
f 10 13 12

