# https://github.com/mikedh/trimesh
v 0.00561942 0.01999804 0.00194202
v 0.01736917 0.01999804 0.00194202
v 0.00593911 0.01999804 0.00000300
v 0.00566344 0.01385865 0.00194202
v 0.01745256 0.01999804 0.00000300
v 0.01736917 0.00000196 0.00194202
v 0.00600050 0.01385865 0.00000300
v 0.01397304 0.00004698 0.00000300
v 0.01386069 0.00000196 0.00194202
v 0.01745256 0.00000196 0.00000300
v 0.01399969 0.00000196 0.00000300
f 1 2 5
f 1 5 3
f 1 3 4
f 1 4 9
f 1 9 6
f 1 6 2
f 2 6 10
f 2 10 5
f 3 5 10
f 3 10 11
f 3 11 8
f 3 8 7
f 3 7 4
f 4 8 9
f 4 7 8
f 6 9 11
f 6 11 10
f 8 11 9

