# https://github.com/mikedh/trimesh
v 0.00637444 0.01999804 -0.00861933
v 0.00637444 0.01999804 -0.01625372
v 0.00324278 0.01999804 -0.00861933
v 0.00637444 0.00563626 -0.00861933
v 0.00582972 0.01999804 -0.01649991
v 0.00637444 0.00000196 -0.01625372
v 0.00324278 0.01999804 -0.01717400
v 0.00324278 0.00825959 -0.00861933
v 0.00324278 0.00000196 -0.01358499
v 0.00637444 0.00000196 -0.01243025
v 0.00582972 0.00000196 -0.01649991
v 0.00324278 0.00000196 -0.01717400
f 1 2 5
f 1 5 7
f 1 7 3
f 1 3 8
f 1 8 4
f 1 4 10
f 1 10 6
f 1 6 2
f 2 6 11
f 2 11 5
f 3 7 12
f 3 12 9
f 3 9 8
f 4 9 10
f 4 8 9
f 5 11 12
f 5 12 7
f 6 10 9
f 6 9 12
f 6 12 11

