# https://github.com/mikedh/trimesh
v 0.00736300 0.01999804 0.01586053
v 0.00979987 0.01999804 0.01449814
v 0.00736300 0.01999804 0.00713986
v 0.00736300 0.00000196 0.01586053
v 0.01210852 0.01999804 0.01263381
v 0.00979987 0.00000196 0.01449814
v 0.00736300 0.00644479 0.00713986
v 0.01592304 0.01999804 0.00713986
v 0.00736300 0.00000196 0.01189030
v 0.01406941 0.01999804 0.01040670
v 0.01210852 0.00000196 0.01263381
v 0.01201132 0.00000196 0.00713986
v 0.01562555 0.01999804 0.00787910
v 0.01592304 0.00000196 0.00713986
v 0.01406941 0.00000196 0.01040670
v 0.01562555 0.00000196 0.00787910
f 1 2 5
f 1 5 10
f 1 10 13
f 1 13 8
f 1 8 3
f 1 3 7
f 1 7 9
f 1 9 4
f 1 4 6
f 1 6 2
f 2 6 11
f 2 11 5
f 3 8 14
f 3 14 12
f 3 12 7
f 4 9 12
f 4 12 14
f 4 14 16
f 4 16 15
f 4 15 11
f 4 11 6
f 5 11 15
f 5 15 10
f 7 12 9
f 8 13 16
f 8 16 14
f 10 15 16
f 10 16 13

