# https://github.com/mikedh/trimesh
v -0.00555097 0.01999804 -0.00804643
v -0.00809753 0.01999804 -0.00804643
v -0.00555097 0.00729052 -0.00804643
v -0.00555097 0.01999804 -0.01657299
v -0.00809753 0.01999804 -0.01547452
v -0.00809753 0.00442835 -0.00804643
v -0.00555097 0.00728269 -0.00805144
v -0.00583015 0.01999804 -0.01649954
v -0.00555097 0.00000196 -0.01657299
v -0.00809753 0.00000196 -0.01547452
v -0.00809753 0.00000196 -0.01138193
v -0.00555097 0.00000196 -0.01283349
v -0.00583015 0.00000196 -0.01649954
f 1 2 6
f 1 6 3
f 1 3 7
f 1 7 12
f 1 12 9
f 1 9 4
f 1 4 8
f 1 8 5
f 1 5 2
f 2 5 10
f 2 10 11
f 2 11 6
f 3 6 7
f 4 9 13
f 4 13 8
f 5 8 13
f 5 13 10
f 6 11 12
f 6 12 7
f 9 12 11
f 9 11 10
f 9 10 13

