# https://github.com/mikedh/trimesh
v -0.01703125 0.00000196 -0.00393531
v -0.01623722 0.00000196 -0.00652468
v -0.01343450 0.00000196 -0.00393531
v -0.01703125 0.01999804 -0.00393531
v -0.01571078 0.00000196 -0.00756910
v -0.01623722 0.01999804 -0.00652468
v -0.01177823 0.00000196 -0.00756875
v -0.00809753 0.00501370 -0.00756910
v -0.00809753 0.00863547 -0.00393531
v -0.00809753 0.01999804 -0.00393531
v -0.01177823 0.00000196 -0.00756910
v -0.01571078 0.01999804 -0.00756910
v -0.00809753 0.01999804 -0.00756910
f 1 2 5
f 1 5 11
f 1 11 7
f 1 7 3
f 1 3 9
f 1 9 10
f 1 10 4
f 1 4 6
f 1 6 2
f 2 6 12
f 2 12 5
f 3 7 8
f 3 8 9
f 4 10 13
f 4 13 12
f 4 12 6
f 5 12 13
f 5 13 8
f 5 8 11
f 7 11 8
f 8 13 10
f 8 10 9

