# https://github.com/mikedh/trimesh
v -0.01730074 0.00000196 -0.00217560
v -0.01710695 0.00000196 -0.00368679
v -0.01381745 0.00000196 -0.00217560
v -0.01730074 0.01999804 -0.00217560
v -0.01703068 0.00000196 -0.00393495
v -0.01710695 0.01999804 -0.00368679
v -0.00557681 0.01385865 -0.00217560
v -0.01343486 0.00000196 -0.00393495
v -0.00452907 0.01385865 -0.00393495
v -0.00555180 0.01999804 -0.00217560
v -0.01703068 0.01999804 -0.00393495
v -0.00452907 0.01999804 -0.00393495
f 1 2 5
f 1 5 8
f 1 8 3
f 1 3 7
f 1 7 10
f 1 10 4
f 1 4 6
f 1 6 2
f 2 6 11
f 2 11 5
f 3 8 9
f 3 9 7
f 4 10 12
f 4 12 11
f 4 11 6
f 5 11 12
f 5 12 9
f 5 9 8
f 7 9 10
f 9 12 10

