# https://github.com/mikedh/trimesh
v -0.00809753 0.01999804 -0.00756988
v -0.00809753 0.01999804 -0.01547534
v -0.01571088 0.01999804 -0.00756988
v -0.00809753 0.00501370 -0.00756988
v -0.00853502 0.01999804 -0.01527722
v -0.00809753 0.00000196 -0.01547534
v -0.01490147 0.01999804 -0.00917574
v -0.01571088 0.00000196 -0.00756988
v -0.01177787 0.00000196 -0.00756988
v -0.00809753 0.00000196 -0.01138215
v -0.01099455 0.01999804 -0.01361487
v -0.00853502 0.00000196 -0.01527722
v -0.01313658 0.01999804 -0.01156169
v -0.01490147 0.00000196 -0.00917574
v -0.01099455 0.00000196 -0.01361487
v -0.01313658 0.00000196 -0.01156169
f 1 2 5
f 1 5 11
f 1 11 13
f 1 13 7
f 1 7 3
f 1 3 8
f 1 8 9
f 1 9 4
f 1 4 10
f 1 10 6
f 1 6 2
f 2 6 12
f 2 12 5
f 3 7 14
f 3 14 8
f 4 9 10
f 5 12 15
f 5 15 11
f 6 10 9
f 6 9 8
f 6 8 14
f 6 14 16
f 6 16 15
f 6 15 12
f 7 13 16
f 7 16 14
f 11 15 16
f 11 16 13

