# https://github.com/mikedh/trimesh
v 0.00169033 0.01999804 -0.00575697
v 0.00169033 0.01385865 -0.00575812
v 0.00169033 0.01999804 -0.01735517
v -0.00000281 0.01999804 -0.00600066
v -0.00000281 0.01385865 -0.00600066
v -0.00000281 0.00000196 -0.01399870
v 0.00169033 0.00000196 -0.01387801
v 0.00000001 0.01999804 -0.01750000
v 0.00169033 0.00000196 -0.01735517
v -0.00000281 0.01999804 -0.01749885
v -0.00000281 0.00000196 -0.01749885
v 0.00000001 0.00000196 -0.01750000
f 1 2 7
f 1 7 9
f 1 9 3
f 1 3 8
f 1 8 10
f 1 10 4
f 1 4 5
f 1 5 2
f 2 5 6
f 2 6 7
f 3 9 12
f 3 12 8
f 4 10 11
f 4 11 6
f 4 6 5
f 6 11 12
f 6 12 9
f 6 9 7
f 8 12 11
f 8 11 10

