# https://github.com/mikedh/trimesh
v 0.00919836 0.00155442 -0.00928575
v 0.01046304 0.00000196 -0.00928575
v 0.01303427 0.00000196 -0.00501245
v 0.00919836 0.00606108 -0.00501245
v 0.00919836 0.01999804 -0.00928575
v 0.01481967 0.00000196 -0.00928575
v 0.01670127 0.00000196 -0.00501245
v 0.00919836 0.01999804 -0.00501245
v 0.01481967 0.01999804 -0.00928575
v 0.01490119 0.00000196 -0.00917532
v 0.01623784 0.00000196 -0.00652500
v 0.01670127 0.01999804 -0.00501245
v 0.01490119 0.01999804 -0.00917532
v 0.01623784 0.01999804 -0.00652500
f 1 2 3
f 1 3 4
f 1 4 8
f 1 8 5
f 1 5 9
f 1 9 6
f 1 6 2
f 2 6 10
f 2 10 11
f 2 11 7
f 2 7 3
f 3 7 12
f 3 12 8
f 3 8 4
f 5 8 12
f 5 12 14
f 5 14 13
f 5 13 9
f 6 9 13
f 6 13 10
f 7 11 14
f 7 14 12
f 10 13 14
f 10 14 11

