# https://github.com/mikedh/trimesh
v 0.00324278 0.01999804 -0.00504801
v 0.00169048 0.01999804 -0.00575763
v 0.00169048 0.01385865 -0.00575763
v 0.00324278 0.01385865 -0.00504921
v 0.00324278 0.01999804 -0.01717300
v 0.00169048 0.01999804 -0.01735493
v 0.00169048 0.00000196 -0.01387791
v 0.00324278 0.00000196 -0.01358514
v 0.00295740 0.01999804 -0.01724770
v 0.00324278 0.00000196 -0.01717300
v 0.00169048 0.00000196 -0.01735493
v 0.00295740 0.00000196 -0.01724770
f 1 2 3
f 1 3 4
f 1 4 8
f 1 8 10
f 1 10 5
f 1 5 9
f 1 9 6
f 1 6 2
f 2 6 11
f 2 11 7
f 2 7 3
f 3 7 4
f 4 7 8
f 5 10 12
f 5 12 9
f 6 9 12
f 6 12 11
f 7 11 12
f 7 12 10
f 7 10 8

