# https://github.com/mikedh/trimesh
v 0.00637444 0.02000000 -0.00501245
v 0.00637444 0.02000000 -0.00861898
v 0.00328447 0.02000000 -0.00501245
v 0.00637444 0.01017526 -0.00501245
v 0.00324278 0.02000000 -0.00861898
v 0.00637444 0.00563482 -0.00861898
v 0.00324278 0.02000000 -0.00504811
v 0.00324278 0.01385936 -0.00504811
v 0.00329091 0.01385936 -0.00501245
v 0.00324278 0.00826009 -0.00861898
f 1 2 5
f 1 5 7
f 1 7 3
f 1 3 9
f 1 9 4
f 1 4 6
f 1 6 2
f 2 6 10
f 2 10 5
f 3 7 8
f 3 8 9
f 4 9 8
f 4 8 10
f 4 10 6
f 5 10 8
f 5 8 7

