# https://github.com/mikedh/trimesh
v 0.00392394 0.01999804 0.01701860
v 0.00440993 0.01999804 0.01693448
v 0.00392394 0.01999804 0.00713986
v 0.00392394 0.00000196 0.01701860
v 0.00720802 0.01999804 0.01594621
v 0.00440993 0.00000196 0.01693448
v 0.00392394 0.01010376 0.00713986
v 0.00736217 0.01999804 0.00713986
v 0.00392394 0.00000196 0.01343688
v 0.00736217 0.01999804 0.01586015
v 0.00720802 0.00000196 0.01594621
v 0.00736217 0.00644479 0.00713986
v 0.00736217 0.00000196 0.01189067
v 0.00736217 0.00000196 0.01586015
f 1 2 5
f 1 5 10
f 1 10 8
f 1 8 3
f 1 3 7
f 1 7 9
f 1 9 4
f 1 4 6
f 1 6 2
f 2 6 11
f 2 11 5
f 3 8 12
f 3 12 7
f 4 9 13
f 4 13 14
f 4 14 11
f 4 11 6
f 5 11 14
f 5 14 10
f 7 12 9
f 8 10 14
f 8 14 13
f 8 13 12
f 9 12 13

