# https://github.com/mikedh/trimesh
v -0.01729977 0.00000196 0.00249419
v -0.01374754 0.00000196 0.00249419
v -0.01693547 0.00000196 0.00418326
v -0.01729977 0.01999804 0.00249419
v -0.01334362 0.00000196 0.00418326
v -0.00545687 0.01385865 0.00249419
v -0.00428089 0.01385865 0.00418326
v -0.01693547 0.01999804 0.00418326
v -0.00545815 0.01999804 0.00249419
v -0.00545687 0.01998434 0.00249419
v -0.00424126 0.01999804 0.00418326
f 1 2 5
f 1 5 3
f 1 3 8
f 1 8 4
f 1 4 9
f 1 9 10
f 1 10 6
f 1 6 2
f 2 6 7
f 2 7 5
f 3 5 7
f 3 7 11
f 3 11 8
f 4 8 11
f 4 11 9
f 6 10 11
f 6 11 7
f 9 11 10

